<?xml version="1.0" encoding="UTF-8"?>
<!DOCTYPE svg PUBLIC "-//W3C//DTD SVG 1.1//EN" "http://www.w3.org/Graphics/SVG/1.1/DTD/svg11.dtd">
<svg xmlns="http://www.w3.org/2000/svg" xml:space="preserve" width="204px" height="250px" version="1.1"
    style="shape-rendering:geometricPrecision; text-rendering:geometricPrecision; image-rendering:optimizeQuality; fill-rule:evenodd; clip-rule:evenodd"
    viewBox="0 0 111117.59 136309.572" xmlns:xlink="http://www.w3.org/1999/xlink"
    xmlns:xodm="http://www.corel.com/coreldraw/odm/2003">
    <defs>
        <style type="text/css">
            <![CDATA[
            .fil0 {
                fill: #383838
            }
            ]]>
        </style>
    </defs>
    <g id="Layer_x0020_1">
        <path class="fil0"
            d="M29308.799 0l8537.236 0 0 20714.826c-126.838,72.749 -251.407,151.928 -372.95,238.546l-6861.359 4886.922 -6808.91 5410.035c-3282.66,2608.123 -3532.176,7364.803 -2077.699,11481.493 1266.364,3584.247 4920.46,13496.907 10410.809,10935.812 2548.991,-1188.949 3518.559,-3890.373 2311.958,-6268.65 -1499.867,-2955.983 -5365.276,-7925.362 -3823.802,-9161.466l5644.672 -4526.581 1577.281 -1123.387 0 10389.501c0,2646.704 2165.325,4812.029 4812.029,4812.029l0.126 0c2646.705,0 4812.03,-2165.325 4812.03,-4812.029l0 -10672.428 1974.438 1406.314 5644.672 4526.581c1541.473,1236.104 -2323.936,6205.483 -3823.802,9161.466 -1206.601,2378.277 -237.034,5079.701 2311.958,6268.65 5490.348,2561.095 9144.445,-7351.565 10410.808,-10935.812 1454.477,-4116.69 1204.962,-8873.37 -2077.698,-11481.493l-6808.91 -5410.035 -6861.36 -4886.922c-246.237,-175.379 -504.326,-321.76 -770.106,-440.781l0 -20512.591 34338.571 0c16119.909,0 29308.799,13188.89 29308.799,29308.799l0 46822.538 -111117.59 0 0 -46822.538c0,-16119.909 13188.89,-29308.799 29308.799,-29308.799zm51126.459 95411.733c2668.013,0 4830.816,2162.803 4830.816,4830.816 0,2668.012 -2162.803,4830.816 -4830.816,4830.816 -2668.012,0 -4830.815,-2162.804 -4830.815,-4830.816 0,-2668.013 2162.803,-4830.816 4830.815,-4830.816zm-50131.045 0l12501.493 0c2657.043,0 4830.816,2173.773 4830.816,4830.816 0,2657.169 -2173.773,4830.942 -4830.816,4830.942l-12501.493 0c-2657.044,0 -4830.816,-2173.773 -4830.816,-4830.942 0,-2657.043 2173.772,-4830.816 4830.816,-4830.816zm80813.377 -9622.546l0 21211.587c0,16119.908 -13188.89,29308.798 -29308.799,29308.798l-52499.992 0c-16119.909,0 -29308.799,-13188.89 -29308.799,-29308.798l0 -21211.587 111117.59 0z" />
    </g>
</svg>