<svg xmlns="http://www.w3.org/2000/svg" viewBox="0 0 111117.59 136309.572" role="img" aria-label="DeckClaw mark">
  <path fill="currentColor" d="M29308.799 0h8537.236v20714.826c-126.838 72.749-251.407 151.928-372.95 238.546l-6861.359 4886.922-6808.91 5410.035c-3282.66 2608.123-3532.176 7364.803-2077.699 11481.493 1266.364 3584.247 4920.46 13496.907 10410.809 10935.812 2548.991-1188.949 3518.559-3890.373 2311.958-6268.65-1499.867-2955.983-5365.276-7925.362-3823.802-9161.466l5644.672-4526.581 1577.281-1123.387v10389.501c0 2646.704 2165.325 4812.029 4812.029 4812.029h.126c2646.705 0 4812.03-2165.325 4812.03-4812.029V39717.614l1974.438 1406.314 5644.672 4526.581c1541.473 1236.104-2323.936 6205.483-3823.802 9161.466-1206.601 2378.277-237.034 5079.701 2311.958 6268.65 5490.348 2561.095 9144.445-7351.565 10410.808-10935.812 1454.477-4116.69 1204.962-8873.37-2077.698-11481.493l-6808.91-5410.035-6861.36-4886.922c-246.237-175.379-504.326-321.76-770.106-440.781V0h34338.571c16119.909 0 29308.799 13188.89 29308.799 29308.799v46822.538H0V29308.799C0 13188.89 13188.89 0 29308.799 0Zm51126.459 95411.733c2668.013 0 4830.816 2162.803 4830.816 4830.816 0 2668.012-2162.803 4830.816-4830.816 4830.816-2668.012 0-4830.815-2162.804-4830.815-4830.816 0-2668.013 2162.803-4830.816 4830.815-4830.816Zm-50131.045 0h12501.493c2657.043 0 4830.816 2173.773 4830.816 4830.816 0 2657.169-2173.773 4830.942-4830.816 4830.942H30327.213c-2657.044 0-4830.816-2173.773-4830.816-4830.942 0-2657.043 2173.772-4830.816 4830.816-4830.816Zm80813.377-9622.546v21211.587c0 16119.908-13188.89 29308.798-29308.799 29308.798H29308.799C13188.89 136309.572 0 123120.682 0 107000.774V85789.187h111117.59Z"/>
</svg>
